STARTFONT 2.1
FONT plunk
SIZE 28 75 75
FONTBOUNDINGBOX 26 30 0 -9

STARTPROPERTIES 10
COPYRIGHT "Public domain font.  Share and enjoy."
POINT_SIZE 280
WEIGHT 10
RESOLUTION_X 75
RESOLUTION_Y 75
X_HEIGHT 21
QUAD_WIDTH 21
DEFAULT_CHAR 0
FONT_DESCENT 9
FONT_ASCENT 21
ENDPROPERTIES

CHARS 95

STARTCHAR C000
ENCODING 0
SWIDTH 714 0
DWIDTH 20 0
BBX 20 30 0 -9
BITMAP
C30C30
E79E70
3CF3C0
186180
3CF3C0
E79E70
C30C30
E79E70
3CF3C0
186180
3CF3C0
E79E70
C30C30
E79E70
3CF3C0
186180
3CF3C0
E79E70
C30C30
E79E70
3CF3C0
186180
3CF3C0
E79E70
C30C30
E79E70
3CF3C0
186180
3CF3C0
E79E70
ENDCHAR

STARTCHAR C040
ENCODING 32
SWIDTH 714 0
DWIDTH 20 0
BBX 20 30 0 -9
BITMAP
000000
000000
000000
000000
000000
000000
000000
000000
000000
000000
000000
000000
000000
000000
000000
000000
C00300
C00300
C00300
FFFF00
FFFF00
000000
000000
000000
000000
000000
000000
000000
000000
000000
ENDCHAR

STARTCHAR !
ENCODING 33
SWIDTH 642 0
DWIDTH 18 0
BBX 18 30 0 -9
BITMAP
000000
030000
078000
078000
030000
030000
030000
631800
FFFC00
FFFC00
631800
030000
030000
030000
030000
030000
030000
030000
030000
030000
030000
000000
000000
000000
000000
000000
000000
000000
000000
000000
ENDCHAR

STARTCHAR "
ENCODING 34
SWIDTH 392 0
DWIDTH 11 0
BBX 11 30 0 -9
BITMAP
0000
0000
7C00
FE00
C600
C600
C600
FE00
7C00
0000
0000
0000
0000
0000
0000
0000
0000
0000
0000
0000
0000
0000
0000
0000
0000
0000
0000
0000
0000
0000
ENDCHAR

STARTCHAR #
ENCODING 35
SWIDTH 857 0
DWIDTH 24 0
BBX 24 30 0 -9
BITMAP
000000
000000
000000
000000
000000
000000
000000
000000
000F00
1C3FC0
7F70E0
E3E070
C1C030
C1C030
E3E070
7F70E0
1C3FC0
000F00
000000
000000
000000
000000
000000
000000
000000
000000
000000
000000
000000
000000
ENDCHAR

STARTCHAR $
ENCODING 36
SWIDTH 571 0
DWIDTH 16 0
BBX 16 30 0 -9
BITMAP
0000
0000
0000
0000
00C0
00C0
0180
0180
1FC0
3FE0
7370
E330
C300
C600
C600
E630
7670
3FE0
1F80
0C00
0C00
1800
1800
0000
0000
0000
0000
0000
0000
0000
ENDCHAR

STARTCHAR %
ENCODING 37
SWIDTH 607 0
DWIDTH 17 0
BBX 17 30 0 -9
BITMAP
000000
000000
000000
000000
000000
000000
000000
070000
070000
070000
000000
000000
FFF800
FFF800
000000
000000
070000
070000
070000
000000
000000
000000
000000
000000
000000
000000
000000
000000
000000
000000
ENDCHAR

STARTCHAR &
ENCODING 38
SWIDTH 750 0
DWIDTH 21 0
BBX 21 30 0 -9
BITMAP
000000
000000
01C000
01C000
036000
036000
063000
063000
063000
0C1800
0C1800
180C00
180C00
300600
300600
300600
600300
600300
C00180
C00180
C00180
000000
000000
000000
000000
000000
000000
000000
000000
000000
ENDCHAR

STARTCHAR '
ENCODING 39
SWIDTH 285 0
DWIDTH 8 0
BBX 8 30 0 -9
BITMAP
00
00
00
00
00
00
00
00
00
00
60
F0
F0
60
00
00
00
00
00
00
00
00
00
00
00
00
00
00
00
00
ENDCHAR

STARTCHAR (
ENCODING 40
SWIDTH 392 0
DWIDTH 11 0
BBX 11 30 0 -9
BITMAP
0000
0600
0600
0C00
0C00
1800
1800
3000
3000
6000
6000
C000
6000
6000
3000
3000
1800
1800
0C00
0C00
0600
0600
0000
0000
0000
0000
0000
0000
0000
0000
ENDCHAR

STARTCHAR )
ENCODING 41
SWIDTH 392 0
DWIDTH 11 0
BBX 11 30 0 -9
BITMAP
0000
C000
C000
6000
6000
3000
3000
1800
1800
0C00
0C00
0600
0C00
0C00
1800
1800
3000
3000
6000
6000
C000
C000
0000
0000
0000
0000
0000
0000
0000
0000
ENDCHAR

STARTCHAR *
ENCODING 42
SWIDTH 285 0
DWIDTH 8 0
BBX 8 30 0 -9
BITMAP
00
00
00
00
00
00
00
00
00
00
60
F0
F0
60
00
00
00
00
00
00
00
00
00
00
00
00
00
00
00
00
ENDCHAR

STARTCHAR +
ENCODING 43
SWIDTH 642 0
DWIDTH 18 0
BBX 18 30 0 -9
BITMAP
000000
000000
000000
000000
000000
000000
000000
030000
030000
030000
030000
030000
FFFC00
FFFC00
030000
030000
030000
030000
030000
FFFC00
FFFC00
000000
000000
000000
000000
000000
000000
000000
000000
000000
ENDCHAR

STARTCHAR ,
ENCODING 44
SWIDTH 642 0
DWIDTH 18 0
BBX 18 30 0 -9
BITMAP
000000
000000
000000
000000
000000
000000
000000
FF8000
FFE000
007000
003800
001800
001C00
3FFC00
3FFC00
001C00
001800
003800
007000
FFE000
FF8000
000000
000000
000000
000000
000000
000000
000000
000000
000000
ENDCHAR

STARTCHAR -
ENCODING 45
SWIDTH 642 0
DWIDTH 18 0
BBX 18 30 0 -9
BITMAP
000000
000000
000000
000000
000000
000000
000000
FFFC00
FFFC00
030000
030000
030000
030000
030000
FFFC00
FFFC00
030000
030000
030000
030000
030000
000000
000000
000000
000000
000000
000000
000000
000000
000000
ENDCHAR

STARTCHAR .
ENCODING 46
SWIDTH 678 0
DWIDTH 19 0
BBX 19 30 0 -9
BITMAP
000000
000000
000000
000000
000000
000000
000000
038000
07C000
07C000
038000
000000
000000
000000
000000
000000
000000
701C00
F83E00
F83E00
701C00
000000
000000
000000
000000
000000
000000
000000
000000
000000
ENDCHAR

STARTCHAR /
ENCODING 47
SWIDTH 821 0
DWIDTH 23 0
BBX 23 30 0 -9
BITMAP
000000
000000
03F800
0FFE00
1C0700
380380
7007C0
600EC0
C01C60
C03860
C07060
C0E060
C1C060
C38060
C70060
6E00C0
7C01C0
380380
1C0700
0FFE00
03F800
000000
000000
000000
000000
000000
000000
000000
000000
000000
ENDCHAR

STARTCHAR 0
ENCODING 48
SWIDTH 821 0
DWIDTH 23 0
BBX 23 30 0 -9
BITMAP
000000
000000
03F800
0FFE00
1C0700
380380
7001C0
6000C0
C00060
C00060
C00060
C00060
C00060
C00060
C00060
6000C0
7001C0
380380
1C0700
0FFE00
03F800
000000
000000
000000
000000
000000
000000
000000
000000
000000
ENDCHAR

STARTCHAR 1
ENCODING 49
SWIDTH 821 0
DWIDTH 23 0
BBX 23 30 0 -9
BITMAP
000000
000000
FFFFE0
FFFFE0
C00060
C00060
C00060
C00060
C00060
C00060
C00060
C00060
C00060
C00060
C00060
C00060
C00060
C00060
C00060
FFFFE0
FFFFE0
000000
000000
000000
000000
000000
000000
000000
000000
000000
ENDCHAR

STARTCHAR 2
ENCODING 50
SWIDTH 857 0
DWIDTH 24 0
BBX 24 30 0 -9
BITMAP
000000
000000
006000
00F000
00F000
019800
019800
030C00
030C00
060600
060600
0C0300
0C0300
180180
180180
3000C0
3000C0
600060
600060
FFFFF0
FFFFF0
000000
000000
000000
000000
000000
000000
000000
000000
000000
ENDCHAR

STARTCHAR 3
ENCODING 51
SWIDTH 892 0
DWIDTH 25 0
BBX 25 30 0 -9
BITMAP
00000000
00200000
00700000
00F80000
01DC0000
038E0000
07070000
0E038000
1C01C000
3800E000
70007000
E0003800
70007000
3800E000
1C01C000
0E038000
07070000
038E0000
01DC0000
00F80000
00700000
00200000
00000000
00000000
00000000
00000000
00000000
00000000
00000000
00000000
ENDCHAR

STARTCHAR 4
ENCODING 52
SWIDTH 821 0
DWIDTH 23 0
BBX 23 30 0 -9
BITMAP
000000
000000
03F800
0FFE00
1CE700
38E380
70E1C0
60E0C0
C0E060
C0E060
FFFFE0
FFFFE0
FFFFE0
C0E060
C0E060
60E0C0
70E1C0
38E380
1CE700
0FFE00
03F800
000000
000000
000000
000000
000000
000000
000000
000000
000000
ENDCHAR

STARTCHAR 5
ENCODING 53
SWIDTH 821 0
DWIDTH 23 0
BBX 23 30 0 -9
BITMAP
000000
000000
03F800
0FFE00
1C0700
380380
7001C0
6000C0
C00060
C00060
FFFFE0
FFFFE0
FFFFE0
C00060
C00060
6000C0
7001C0
380380
1C0700
0FFE00
03F800
000000
000000
000000
000000
000000
000000
000000
000000
000000
ENDCHAR

STARTCHAR 6
ENCODING 54
SWIDTH 821 0
DWIDTH 23 0
BBX 23 30 0 -9
BITMAP
000000
000000
03F800
0FFE00
1C0700
380380
7C07C0
6E0EC0
C71C60
C3B860
C1F060
C0E060
C1F060
C3B860
C71C60
6E0EC0
7C07C0
380380
1C0700
0FFE00
03F800
000000
000000
000000
000000
000000
000000
000000
000000
000000
ENDCHAR

STARTCHAR 7
ENCODING 55
SWIDTH 714 0
DWIDTH 20 0
BBX 20 30 0 -9
BITMAP
000000
000000
07E000
1FF800
381C00
600600
600600
C00300
C00300
C00300
C00300
C00300
C00300
C00300
C00300
C00300
C00300
C00300
C00300
C00300
C00300
000000
000000
000000
000000
000000
000000
000000
000000
000000
ENDCHAR

STARTCHAR 8
ENCODING 56
SWIDTH 750 0
DWIDTH 21 0
BBX 21 30 0 -9
BITMAP
000000
000000
000000
000000
008000
008000
01C000
01C000
03E000
03E000
FFFF80
7FFF00
1FFC00
0FF800
0FF800
1FFC00
1F7C00
3E3E00
380E00
200200
000000
000000
000000
000000
000000
000000
000000
000000
000000
000000
ENDCHAR

STARTCHAR 9
ENCODING 57
SWIDTH 392 0
DWIDTH 11 0
BBX 11 30 0 -9
BITMAP
0000
0000
0000
0000
0000
0000
0000
0000
0000
3800
7C00
FE00
FE00
7C00
3800
0000
0000
0000
0000
0000
0000
0000
0000
0000
0000
0000
0000
0000
0000
0000
ENDCHAR

STARTCHAR :
ENCODING 58
SWIDTH 607 0
DWIDTH 17 0
BBX 17 30 0 -9
BITMAP
000000
000000
000000
000000
000000
000000
000000
000000
000000
000000
707000
F8F800
F8F800
707000
000000
000000
000000
000000
000000
000000
000000
000000
000000
000000
000000
000000
000000
000000
000000
000000
ENDCHAR

STARTCHAR ;
ENCODING 59
SWIDTH 392 0
DWIDTH 11 0
BBX 11 30 0 -9
BITMAP
0000
FE00
FE00
FE00
FE00
FE00
FE00
FE00
FE00
FE00
FE00
FE00
FE00
FE00
FE00
FE00
FE00
FE00
FE00
FE00
FE00
FE00
0000
0000
0000
0000
0000
0000
0000
0000
ENDCHAR

STARTCHAR <
ENCODING 60
SWIDTH 714 0
DWIDTH 20 0
BBX 20 30 0 -9
BITMAP
000000
000000
000700
000E00
003800
007000
01C000
038000
0E0000
1C0000
700000
E00000
700000
1C0000
0E0000
038000
01C000
007000
003800
000E00
000700
000000
000000
000000
FFFF00
FFFF00
000000
000000
000000
000000
ENDCHAR

STARTCHAR =
ENCODING 61
SWIDTH 642 0
DWIDTH 18 0
BBX 18 30 0 -9
BITMAP
000000
000000
000000
000000
000000
000000
000C00
001800
003000
006000
FFFC00
FFFC00
018000
030000
060000
FFFC00
FFFC00
180000
300000
600000
C00000
000000
000000
000000
000000
000000
000000
000000
000000
000000
ENDCHAR

STARTCHAR >
ENCODING 62
SWIDTH 714 0
DWIDTH 20 0
BBX 20 30 0 -9
BITMAP
000000
000000
E00000
700000
1C0000
0E0000
038000
01C000
007000
003800
000E00
000700
000E00
003800
007000
01C000
038000
0E0000
1C0000
700000
E00000
000000
000000
000000
FFFF00
FFFF00
000000
000000
000000
000000
ENDCHAR

STARTCHAR ?
ENCODING 63
SWIDTH 571 0
DWIDTH 16 0
BBX 16 30 0 -9
BITMAP
0000
0000
0600
0600
0000
0000
0000
0600
0600
0600
0600
0E00
1C00
3800
6000
E030
C030
E070
70E0
3FC0
1F80
0000
0000
0000
0000
0000
0000
0000
0000
0000
ENDCHAR

STARTCHAR @
ENCODING 64
SWIDTH 857 0
DWIDTH 24 0
BBX 24 30 0 -9
BITMAP
000000
000000
3E0600
7F0600
E30C00
C00C00
C01800
E31800
7F3000
3E3000
006000
006000
006000
00C3C0
00C7E0
018E70
018C30
030C30
030E70
0607E0
0603C0
000000
000000
000000
000000
000000
000000
000000
000000
000000
ENDCHAR

STARTCHAR A
ENCODING 65
SWIDTH 750 0
DWIDTH 21 0
BBX 21 30 0 -9
BITMAP
000000
000000
E00380
E00380
E00380
700700
700700
7FFF00
3FFE00
380E00
380E00
1C1C00
1C1C00
1C1C00
0E3800
0E3800
077000
077000
077000
03E000
03E000
000000
000000
000000
000000
000000
000000
000000
000000
000000
ENDCHAR

STARTCHAR B
ENCODING 66
SWIDTH 642 0
DWIDTH 18 0
BBX 18 30 0 -9
BITMAP
000000
000000
000000
000000
000000
000000
000000
07FC00
1FFC00
380000
700000
E00000
C00000
FFF000
FFF000
C00000
E00000
700000
380000
1FFC00
07FC00
000000
000000
000000
000000
000000
000000
000000
000000
000000
ENDCHAR

STARTCHAR C
ENCODING 67
SWIDTH 714 0
DWIDTH 20 0
BBX 20 30 0 -9
BITMAP
000000
000000
07F000
1FFC00
318E00
630700
630300
C60300
C60000
C60000
C60000
C60000
C60000
C60000
C60000
C60300
630300
630700
318E00
1FFC00
07F000
000000
000000
000000
000000
000000
000000
000000
000000
000000
ENDCHAR

STARTCHAR D
ENCODING 68
SWIDTH 857 0
DWIDTH 24 0
BBX 24 30 0 -9
BITMAP
000000
000000
FFFFF0
FFFFF0
600060
600060
3000C0
3000C0
180180
180180
0C0300
0C0300
060600
060600
030C00
030C00
019800
019800
00F000
00F000
006000
000000
000000
000000
000000
000000
000000
000000
000000
000000
ENDCHAR

STARTCHAR E
ENCODING 69
SWIDTH 607 0
DWIDTH 17 0
BBX 17 30 0 -9
BITMAP
000000
FFF800
FFF800
003800
003800
003800
003800
003800
003800
003800
7FF800
7FF800
003800
003800
003800
003800
003800
003800
003800
FFF800
FFF800
000000
000000
000000
000000
000000
000000
000000
000000
000000
ENDCHAR

STARTCHAR F
ENCODING 70
SWIDTH 678 0
DWIDTH 19 0
BBX 19 30 0 -9
BITMAP
000000
000000
3C0000
7E0000
C60000
C30000
030000
018000
018000
038000
03C000
06C000
06C000
0C6000
0C6000
186000
183000
303000
303300
601E00
600C00
000000
000000
000000
000000
000000
000000
000000
000000
000000
ENDCHAR

STARTCHAR G
ENCODING 71
SWIDTH 678 0
DWIDTH 19 0
BBX 19 30 0 -9
BITMAP
000000
000000
000000
000000
000000
000000
000000
07FE00
1FFE00
380000
700000
E00000
C00000
C00000
C00000
C00000
E00000
700000
380000
1FFE00
07FE00
000000
000000
000000
000000
000000
000000
000000
000000
000000
ENDCHAR

STARTCHAR H
ENCODING 72
SWIDTH 678 0
DWIDTH 19 0
BBX 19 30 0 -9
BITMAP
000000
000000
000000
003000
003000
006000
006000
07FE00
1FFE00
38C000
70C000
E0C000
C18000
C18000
C18000
C18000
E30000
730000
3B0000
1FFE00
07FE00
060000
060000
0C0000
0C0000
000000
000000
000000
000000
000000
ENDCHAR

STARTCHAR I
ENCODING 73
SWIDTH 678 0
DWIDTH 19 0
BBX 19 30 0 -9
BITMAP
000000
000000
000000
000000
000000
000000
000000
07FE00
1FFE00
380000
700000
E00000
C00000
C00000
C00000
C00000
E00000
700000
380000
1FFE00
07FE00
000000
000000
000000
7FFE00
7FFE00
000000
000000
000000
000000
ENDCHAR

STARTCHAR J
ENCODING 74
SWIDTH 678 0
DWIDTH 19 0
BBX 19 30 0 -9
BITMAP
000000
000000
000000
000000
000000
000000
000000
FFC000
FFF000
003800
001C00
000C00
000600
000600
000600
000600
000C00
001C00
003800
FFF000
FFC000
000000
000000
000000
000000
000000
000000
000000
000000
000000
ENDCHAR

STARTCHAR K
ENCODING 75
SWIDTH 678 0
DWIDTH 19 0
BBX 19 30 0 -9
BITMAP
000000
000000
000000
006000
006000
00C000
00C000
FFC000
FFF000
01B800
019C00
018C00
030600
030600
030600
030600
060C00
061C00
063800
FFF000
FFC000
0C0000
0C0000
180000
180000
000000
000000
000000
000000
000000
ENDCHAR

STARTCHAR L
ENCODING 76
SWIDTH 678 0
DWIDTH 19 0
BBX 19 30 0 -9
BITMAP
000000
000000
000000
000000
000000
000000
000000
FFC000
FFF000
003800
001C00
000C00
000600
000600
000600
000600
000C00
001C00
003800
FFF000
FFC000
000000
000000
000000
FFFC00
FFFC00
000000
000000
000000
000000
ENDCHAR

STARTCHAR M
ENCODING 77
SWIDTH 678 0
DWIDTH 19 0
BBX 19 30 0 -9
BITMAP
000000
000000
000000
000000
000000
000000
000000
0C1800
0C1800
0C1800
0C1800
183000
183000
183000
183000
306000
306000
306300
78C600
7FFC00
6F3800
600000
C00000
C00000
C00000
C00000
000000
000000
000000
000000
ENDCHAR

STARTCHAR N
ENCODING 78
SWIDTH 678 0
DWIDTH 19 0
BBX 19 30 0 -9
BITMAP
000000
000000
000000
001800
001800
003000
003000
07FF00
1FFF00
386000
706000
E0C000
C0C000
FFFC00
FFFC00
C18000
E18000
730000
3B0000
1FFF00
07FF00
060000
060000
0C0000
0C0000
000000
000000
000000
000000
000000
ENDCHAR

STARTCHAR O
ENCODING 79
SWIDTH 857 0
DWIDTH 24 0
BBX 24 30 0 -9
BITMAP
000000
000000
000000
000000
000020
000070
0000E0
01F9C0
07FF80
0E0700
1C0F00
181D80
183980
187180
18E180
19C180
1B8180
0F0380
0E0700
1FFE00
39F800
700000
E00000
400000
000000
000000
000000
000000
000000
000000
ENDCHAR

STARTCHAR P
ENCODING 80
SWIDTH 928 0
DWIDTH 26 0
BBX 26 30 0 -9
BITMAP
00000000
00000000
00000000
00000000
00000000
00000000
00000000
00000000
00003C00
0F00FC00
3FC3C000
70EF8000
E07C0000
C0380000
C0380000
E07C0000
70EF8000
3FC3C000
0F00FC00
00003C00
00000000
00000000
00000000
00000000
00000000
00000000
00000000
00000000
00000000
00000000
ENDCHAR

STARTCHAR Q
ENCODING 81
SWIDTH 678 0
DWIDTH 19 0
BBX 19 30 0 -9
BITMAP
000000
000000
000000
000000
000000
000000
0C0000
180000
300000
FFFE00
FFFE00
300000
180000
0C0000
006000
003000
001800
FFFE00
FFFE00
001800
003000
006000
000000
000000
000000
000000
000000
000000
000000
000000
ENDCHAR

STARTCHAR R
ENCODING 82
SWIDTH 607 0
DWIDTH 17 0
BBX 17 30 0 -9
BITMAP
000000
000000
FFC000
FFF000
CC3800
CC1800
CC1800
CC1800
CC1800
CC3800
CC7000
CFE000
CFC000
CC6000
CC6000
CC3000
CC3000
CC1800
CC1800
CC0C00
CC0C00
000000
000000
000000
000000
000000
000000
000000
000000
000000
ENDCHAR

STARTCHAR S
ENCODING 83
SWIDTH 750 0
DWIDTH 21 0
BBX 21 30 0 -9
BITMAP
000000
000000
000000
000000
000000
000000
000000
1F0000
3F8380
71C700
E0FE00
007C00
000000
1F0000
3F8380
71C700
E0FE00
007C00
000000
000000
000000
000000
000000
000000
000000
000000
000000
000000
000000
000000
ENDCHAR

STARTCHAR T
ENCODING 84
SWIDTH 714 0
DWIDTH 20 0
BBX 20 30 0 -9
BITMAP
000000
000000
018000
018000
018000
018000
018000
018000
018000
018000
018000
018000
018000
018000
018000
018000
018000
018000
018000
FFFF00
FFFF00
000000
000000
000000
000000
000000
000000
000000
000000
000000
ENDCHAR

STARTCHAR U
ENCODING 85
SWIDTH 714 0
DWIDTH 20 0
BBX 20 30 0 -9
BITMAP
000000
000000
C00300
C00300
C00300
C00300
C00300
C00300
C00300
C00300
C00300
C00300
C00300
C00300
C00300
C00300
600600
600600
381C00
1FF800
07E000
000000
000000
000000
000000
000000
000000
000000
000000
000000
ENDCHAR

STARTCHAR V
ENCODING 86
SWIDTH 750 0
DWIDTH 21 0
BBX 21 30 0 -9
BITMAP
000000
000000
C00180
C00180
C00180
600300
600300
300600
300600
300600
180C00
180C00
0C1800
0C1800
063000
063000
063000
036000
036000
01C000
01C000
000000
000000
000000
000000
000000
000000
000000
000000
000000
ENDCHAR

STARTCHAR W
ENCODING 87
SWIDTH 642 0
DWIDTH 18 0
BBX 18 30 0 -9
BITMAP
000000
000000
000000
000000
000000
FFFC00
FFFC00
000000
000000
000000
FFFC00
FFFC00
000000
000000
000000
FFFC00
FFFC00
000000
000000
000000
000000
000000
000000
000000
000000
000000
000000
000000
000000
000000
ENDCHAR

STARTCHAR X
ENCODING 88
SWIDTH 714 0
DWIDTH 20 0
BBX 20 30 0 -9
BITMAP
000000
000000
000000
000000
000000
000000
000000
E00700
700E00
381C00
1C3800
0E7000
07E000
03C000
03C000
07E000
0E7000
1C3800
381C00
700E00
E00700
000000
000000
000000
000000
000000
000000
000000
000000
000000
ENDCHAR

STARTCHAR Y
ENCODING 89
SWIDTH 821 0
DWIDTH 23 0
BBX 23 30 0 -9
BITMAP
000000
0000C0
0000C0
000180
000180
000300
000300
000600
000600
000C00
000C00
F81800
F81800
0C3000
0C3000
066000
066000
03C000
03C000
018000
018000
000000
000000
000000
000000
000000
000000
000000
000000
000000
ENDCHAR

STARTCHAR Z
ENCODING 90
SWIDTH 392 0
DWIDTH 11 0
BBX 11 30 0 -9
BITMAP
0000
0000
0000
0000
0000
0000
0000
0000
8000
E000
F000
FC00
FE00
FC00
F000
E000
8000
0000
0000
0000
0000
0000
0000
0000
0000
0000
0000
0000
0000
0000
ENDCHAR

STARTCHAR [
ENCODING 91
SWIDTH 607 0
DWIDTH 17 0
BBX 17 30 0 -9
BITMAP
000000
000000
003800
003800
007000
007000
00E000
01C000
038000
0E0000
3C0000
F00000
3C0000
0E0000
038000
01C000
00E000
007000
007000
003800
003800
000000
000000
000000
000000
000000
000000
000000
000000
000000
ENDCHAR

STARTCHAR \
ENCODING 92
SWIDTH 571 0
DWIDTH 16 0
BBX 16 30 0 -9
BITMAP
0000
03F0
03F0
03F0
07E0
07E0
07E0
0FC0
0FC0
0FC0
1F80
1F80
1F80
3F00
3F00
3F00
7E00
7E00
7E00
FC00
FC00
FC00
0000
0000
0000
0000
0000
0000
0000
0000
ENDCHAR

STARTCHAR ]
ENCODING 93
SWIDTH 642 0
DWIDTH 18 0
BBX 18 30 0 -9
BITMAP
000000
000000
E00000
E00000
700000
700000
380000
1C0000
0E0000
038000
01F000
007C00
01F000
038000
0E0000
1C0000
380000
700000
700000
E00000
E00000
000000
000000
000000
000000
000000
000000
000000
000000
000000
ENDCHAR

STARTCHAR ^
ENCODING 94
SWIDTH 428 0
DWIDTH 12 0
BBX 12 30 0 -9
BITMAP
0000
0000
0000
0000
0000
0000
1800
1800
1800
1800
1800
1800
1800
1800
1800
9900
DB00
7E00
3C00
1800
1800
0000
0000
0000
0000
0000
0000
0000
0000
0000
ENDCHAR

STARTCHAR _
ENCODING 95
SWIDTH 678 0
DWIDTH 19 0
BBX 19 30 0 -9
BITMAP
000000
000000
000000
000000
000000
000000
000000
000000
000000
006000
003000
001800
FFFE00
FFFE00
001800
003000
006000
000000
000000
000000
000000
000000
000000
000000
000000
000000
000000
000000
000000
000000
ENDCHAR

STARTCHAR `
ENCODING 96
SWIDTH 571 0
DWIDTH 16 0
BBX 16 30 0 -9
BITMAP
0000
0000
0000
0000
0000
0000
0000
0000
0000
0000
0000
0000
0000
0000
0000
0000
0000
0000
0000
0000
0000
0000
0000
0000
0000
0000
0000
0000
0000
0000
ENDCHAR

STARTCHAR a
ENCODING 97
SWIDTH 750 0
DWIDTH 21 0
BBX 21 30 0 -9
BITMAP
000000
000000
1C0E00
381C00
7C1E00
7E1F80
7F0FC0
3F87E0
1FCDE0
0FF8E0
1FF1C0
33F800
61FC00
F0FE00
FC7F00
FE3F80
7F1FC0
7F0FC0
7F07C0
7E0380
F80700
000000
000000
000000
000000
000000
000000
000000
000000
000000
ENDCHAR

STARTCHAR b
ENCODING 98
SWIDTH 821 0
DWIDTH 23 0
BBX 23 30 0 -9
BITMAP
000000
000000
000000
000000
000000
000000
000000
000000
000000
0F0600
1F8300
39E180
707FE0
E01FE0
400180
000300
000600
000000
000000
000000
000000
000000
000000
000000
000000
000000
000000
000000
000000
000000
ENDCHAR

STARTCHAR c
ENCODING 99
SWIDTH 821 0
DWIDTH 23 0
BBX 23 30 0 -9
BITMAP
000000
000000
03F800
0FFE00
1C0700
380380
7001C0
61F0C0
C3F860
C71C60
C60060
C60060
C60060
C71C60
C3F860
61F0C0
7001C0
380380
1C0700
0FFE00
03F800
000000
000000
000000
000000
000000
000000
000000
000000
000000
ENDCHAR

STARTCHAR d
ENCODING 100
SWIDTH 607 0
DWIDTH 17 0
BBX 17 30 0 -9
BITMAP
000000
000000
700000
7C0000
0F0000
038000
01C000
00E000
006000
077000
1FF000
383800
601800
E01800
C01800
C01800
C01800
603000
707000
3FE000
0F8000
000000
000000
000000
000000
000000
000000
000000
000000
000000
ENDCHAR

STARTCHAR e
ENCODING 101
SWIDTH 750 0
DWIDTH 21 0
BBX 21 30 0 -9
BITMAP
000000
000000
000000
000000
000000
000000
000000
000000
000000
0F0000
3F8380
71C700
E0FE00
007C00
000000
000000
000000
FFFF80
FFFF80
000000
000000
000000
000000
000000
000000
000000
000000
000000
000000
000000
ENDCHAR

STARTCHAR f
ENCODING 102
SWIDTH 857 0
DWIDTH 24 0
BBX 24 30 0 -9
BITMAP
000000
000000
000000
000000
000000
000000
000000
000000
000000
040200
0E0700
1C0380
3801C0
FFFFF0
FFFFF0
3801C0
1C0380
0E0700
040200
000000
000000
000000
000000
000000
000000
000000
000000
000000
000000
000000
ENDCHAR

STARTCHAR g
ENCODING 103
SWIDTH 750 0
DWIDTH 21 0
BBX 21 30 0 -9
BITMAP
000000
000000
000000
000000
000000
000000
000000
006000
003000
001800
FFFC00
FFFE00
000700
000380
000700
FFFE00
FFFC00
001800
003000
006000
000000
000000
000000
000000
000000
000000
000000
000000
000000
000000
ENDCHAR

STARTCHAR h
ENCODING 104
SWIDTH 678 0
DWIDTH 19 0
BBX 19 30 0 -9
BITMAP
000000
000000
006000
006380
00CE00
00F800
03E000
0F8000
398000
E1FE00
03FF00
030300
030300
030300
060600
060600
060600
0C0C00
0C0C00
0C0C00
0C0C00
000000
000000
000000
000000
000000
000000
000000
000000
000000
ENDCHAR

STARTCHAR i
ENCODING 105
SWIDTH 464 0
DWIDTH 13 0
BBX 13 30 0 -9
BITMAP
FF80
FF80
C000
C000
C000
C000
C000
C000
C000
C000
C000
C000
C000
C000
C000
C000
C000
C000
C000
C000
C000
0000
0000
0000
0000
0000
0000
0000
0000
0000
ENDCHAR

STARTCHAR j
ENCODING 106
SWIDTH 464 0
DWIDTH 13 0
BBX 13 30 0 -9
BITMAP
FF80
FF80
0180
0180
0180
0180
0180
0180
0180
0180
0180
0180
0180
0180
0180
0180
0180
0180
0180
0180
0180
0000
0000
0000
0000
0000
0000
0000
0000
0000
ENDCHAR

STARTCHAR k
ENCODING 107
SWIDTH 464 0
DWIDTH 13 0
BBX 13 30 0 -9
BITMAP
C000
C000
C000
C000
C000
C000
C000
C000
C000
C000
C000
C000
C000
C000
C000
C000
C000
C000
C000
FF80
FF80
0000
0000
0000
0000
0000
0000
0000
0000
0000
ENDCHAR

STARTCHAR l
ENCODING 108
SWIDTH 464 0
DWIDTH 13 0
BBX 13 30 0 -9
BITMAP
0180
0180
0180
0180
0180
0180
0180
0180
0180
0180
0180
0180
0180
0180
0180
0180
0180
0180
0180
FF80
FF80
0000
0000
0000
0000
0000
0000
0000
0000
0000
ENDCHAR

STARTCHAR m
ENCODING 109
SWIDTH 392 0
DWIDTH 11 0
BBX 11 30 0 -9
BITMAP
0000
0000
C600
C600
C600
C600
C600
C600
C600
C600
C600
C600
C600
C600
C600
C600
C600
C600
C600
C600
C600
0000
0000
0000
0000
0000
0000
0000
0000
0000
ENDCHAR

STARTCHAR n
ENCODING 110
SWIDTH 821 0
DWIDTH 23 0
BBX 23 30 0 -9
BITMAP
000000
000000
000000
000000
000000
000000
000000
000000
000000
FFFFE0
FFFFE0
000060
000060
000060
000060
000060
000060
000060
000000
000000
000000
000000
000000
000000
000000
000000
000000
000000
000000
000000
ENDCHAR

STARTCHAR o
ENCODING 111
SWIDTH 464 0
DWIDTH 13 0
BBX 13 30 0 -9
BITMAP
0000
0000
0000
0000
0000
0000
0000
3E00
7F00
E380
C180
C180
C180
E380
7F00
3E00
0000
0000
0000
0000
0000
0000
0000
0000
0000
0000
0000
0000
0000
0000
ENDCHAR

STARTCHAR p
ENCODING 112
SWIDTH 750 0
DWIDTH 21 0
BBX 21 30 0 -9
BITMAP
000000
000000
000000
000000
000000
C00000
C00000
C00000
C00000
C00000
FFFF80
FFFF80
C00000
C00000
C00000
C00000
C00000
000000
000000
000000
000000
000000
000000
000000
000000
000000
000000
000000
000000
000000
ENDCHAR

STARTCHAR q
ENCODING 113
SWIDTH 750 0
DWIDTH 21 0
BBX 21 30 0 -9
BITMAP
000000
000000
000000
000000
C00000
C00000
C00000
C00000
FFFF80
FFFF80
C00000
C00000
C00000
FFFF80
FFFF80
C00000
C00000
C00000
C00000
000000
000000
000000
000000
000000
000000
000000
000000
000000
000000
000000
ENDCHAR

STARTCHAR r
ENCODING 114
SWIDTH 821 0
DWIDTH 23 0
BBX 23 30 0 -9
BITMAP
000000
000000
03F800
0FFE00
1C0700
300180
6000C0
67F8C0
C7FC60
C60C60
C60C60
C7F860
C7FC60
C60C60
C60C60
660CC0
6000C0
300180
1C0700
0FFE00
03F800
000000
000000
000000
000000
000000
000000
000000
000000
000000
ENDCHAR

STARTCHAR s
ENCODING 115
SWIDTH 500 0
DWIDTH 14 0
BBX 14 30 0 -9
BITMAP
0000
0000
0000
0000
0000
0600
0E00
1F00
3F00
6D80
CD80
18C0
1800
1800
3000
3000
3000
6000
6000
0000
0000
0000
0000
0000
0000
0000
0000
0000
0000
0000
ENDCHAR

STARTCHAR t
ENCODING 116
SWIDTH 500 0
DWIDTH 14 0
BBX 14 30 0 -9
BITMAP
0000
0000
0000
0000
0000
1800
1C00
3E00
3F00
6D80
6CC0
C600
0600
0600
0300
0300
0300
0180
0180
0000
0000
0000
0000
0000
0000
0000
0000
0000
0000
0000
ENDCHAR

STARTCHAR u
ENCODING 117
SWIDTH 535 0
DWIDTH 15 0
BBX 15 30 0 -9
BITMAP
0000
0000
0000
0000
0000
0180
0180
0300
0300
0300
0600
0600
C600
6C60
6DC0
3F00
3E00
1C00
1800
0000
0000
0000
0000
0000
0000
0000
0000
0000
0000
0000
ENDCHAR

STARTCHAR v
ENCODING 118
SWIDTH 535 0
DWIDTH 15 0
BBX 15 30 0 -9
BITMAP
0000
0000
0000
0000
0000
3000
3000
1800
1800
1800
0C00
0C00
0C60
C6C0
76C0
1F80
0F80
0700
0300
0000
0000
0000
0000
0000
0000
0000
0000
0000
0000
0000
ENDCHAR

STARTCHAR w
ENCODING 119
SWIDTH 785 0
DWIDTH 22 0
BBX 22 30 0 -9
BITMAP
000000
000000
0071C0
00E380
01C700
038E00
071C00
0E3800
1C7000
38E000
71C000
E38000
71C000
38E000
1C7000
0E3800
071C00
038E00
01C700
00E380
0071C0
000000
000000
000000
000000
000000
000000
000000
000000
000000
ENDCHAR

STARTCHAR x
ENCODING 120
SWIDTH 785 0
DWIDTH 22 0
BBX 22 30 0 -9
BITMAP
000000
000000
E38000
71C000
38E000
1C7000
0E3800
071C00
038E00
01C700
00E380
0071C0
00E380
01C700
038E00
071C00
0E3800
1C7000
38E000
71C000
E38000
000000
000000
000000
000000
000000
000000
000000
000000
000000
ENDCHAR

STARTCHAR y
ENCODING 121
SWIDTH 464 0
DWIDTH 13 0
BBX 13 30 0 -9
BITMAP
0000
0000
0000
0000
0000
0000
0000
0000
0000
0000
0800
1C00
3E00
6300
C180
0000
0000
0000
0000
0000
0000
0000
0000
0000
0000
0000
0000
0000
0000
0000
ENDCHAR

STARTCHAR z
ENCODING 122
SWIDTH 750 0
DWIDTH 21 0
BBX 21 30 0 -9
BITMAP
000000
000000
000000
000000
000000
000000
000000
000000
000000
000000
1F0000
3F8380
71C700
E0FE00
007C00
000000
000000
000000
000000
000000
000000
000000
000000
000000
000000
000000
000000
000000
000000
000000
ENDCHAR

STARTCHAR {
ENCODING 123
SWIDTH 678 0
DWIDTH 19 0
BBX 19 30 0 -9
BITMAP
000000
000000
000000
000000
000000
000000
000000
000000
00C000
006000
003000
001800
FFFE00
FFFE00
001800
003000
006000
00C000
000000
000000
000000
000000
000000
000000
000000
000000
000000
000000
000000
000000
ENDCHAR

STARTCHAR |
ENCODING 124
SWIDTH 571 0
DWIDTH 16 0
BBX 16 30 0 -9
BITMAP
0000
0000
0000
0000
0000
0000
0000
0000
0000
0000
0000
0000
0000
0000
0000
0000
0000
0000
0000
0000
0000
0000
0000
0000
0000
0000
0000
0000
FFF0
FFF0
ENDCHAR

STARTCHAR }
ENCODING 125
SWIDTH 571 0
DWIDTH 16 0
BBX 16 30 0 -9
BITMAP
0000
0000
0000
0000
0000
0000
0000
0000
0000
0000
0000
0000
FFF0
FFF0
0000
0000
0000
0000
0000
0000
0000
0000
0000
0000
0000
0000
0000
0000
0000
0000
ENDCHAR
ENDFONT
